<?xml version="1.0" encoding="UTF-8"?><svg id="Camada_1" xmlns="http://www.w3.org/2000/svg" xmlns:xlink="http://www.w3.org/1999/xlink" viewBox="0 0 419.3 344.37"><defs><style>.cls-1{fill:url(#Gradiente_sem_nome_9);}.cls-2{fill:url(#Gradiente_sem_nome_9-5);}.cls-4{fill:url(#Gradiente_sem_nome_9-4);}.cls-5{fill:url(#Gradiente_sem_nome_9-6);}.cls-6{fill:url(#Gradiente_sem_nome_9-7);}.cls-7{fill:url(#Gradiente_sem_nome_9-2);}.cls-8{fill:url(#Gradiente_sem_nome_9-3);}.cls-9{fill:#241a15;}</style><linearGradient id="Gradiente_sem_nome_9" x1="178.11" y1="210.8" x2="304.18" y2="23.88" gradientUnits="userSpaceOnUse"><stop offset="0" stop-color="#e41b17"/><stop offset="1" stop-color="#fdc108"/></linearGradient><linearGradient id="Gradiente_sem_nome_9-2" x1="214.75" y1="116.39" x2="275.65" y2="116.39" xlink:href="#Gradiente_sem_nome_9"/><linearGradient id="Gradiente_sem_nome_9-3" x1="354.13" y1="289.62" x2="419.3" y2="289.62" xlink:href="#Gradiente_sem_nome_9"/><linearGradient id="Gradiente_sem_nome_9-4" x1="281.75" y1="288.69" x2="352.11" y2="288.69" xlink:href="#Gradiente_sem_nome_9"/><linearGradient id="Gradiente_sem_nome_9-5" x1="195.95" y1="289.56" x2="260.97" y2="289.56" xlink:href="#Gradiente_sem_nome_9"/><linearGradient id="Gradiente_sem_nome_9-6" x1="254.63" y1="289.67" x2="287.73" y2="289.67" xlink:href="#Gradiente_sem_nome_9"/><linearGradient id="Gradiente_sem_nome_9-7" x1="272.12" y1="246.35" x2="292.49" y2="246.35" xlink:href="#Gradiente_sem_nome_9"/></defs><path class="cls-1" d="M353.12,107.25c.97,25.09-3.69,50.37-16.82,71.89-40.52,66.44-138,69.32-183.49,6.61-29.56-40.74-29.52-98.58-.57-139.64,42.11-59.7,134.18-59.04,174.26,2.63.82,1.26,5.31,8.46,5.07,9.22l-.66.57-44.94,17.64c-18.88-26.73-56.24-32.65-82.9-13.5-36.4,26.14-33.92,87.07,3.35,111.34,31.2,20.31,79.88,8.55,97.46-24.48,1.04-1.96,2.32-4.18,2.58-6.39h-16.35v-35.89h63Z"/><path class="cls-9" d="M207.98,0l-8.28,2.28c-100.1,30.26-103.23,185.44-8.06,224.38l15.94,4.99-54.04.02c-46.49-6.11-75.8-51.36-83.39-94.44C60.24,80.99,86.28,8.41,149.58,0h58.41ZM124.36,15.25c-.18.17-.53.85-.33,1.11,1,1.28,17.9,1.32,20.71,1.96,2.32-.23,5.18-3.07,7.13-4.45.96-.68,7.63-3.82,3.3-4.31-5.74-.66-12.12-.33-17.94-.75-2.8,1.04-5.6,2.31-8.21,3.75-.89.49-4.2,2.25-4.67,2.7ZM136.18,26.75l-4.95-.83-16.85-.94c-1.77.38-5.33,4.22-6.68,5.72-.98,1.09-5.82,7-5.6,8.01.23,1.05,1.51,1.4,2.45,1.52,4.73.62,11.51,1.11,16.29,1.25,1.31.04,3.44.17,4.62-.19,1.56-.48,6.54-8.11,7.96-9.98,1.1-1.43,3.19-2.36,2.74-4.56ZM95.03,52.71c-.86.19-1.33.69-1.82,1.37-1.47,2.04-6.54,15.54-6.76,18-.27,3.02,2.65,2.99,4.91,3.27,4.7.59,11.18,1.05,15.93,1.22,5.73.2,5.4-5.78,6.99-10.19.84-2.33,4.35-9.47,3.4-11.36-.75-1.5-5.64-1.05-7.18-1.19-3.85-.36-8.15-1.06-11.97-1.19-1.08-.03-2.48-.15-3.5.08ZM84.27,90.99c-2.53.57-2.41,3.92-2.67,6.1-.57,4.71-.77,11.27-.65,16.01.05,2.04.49,4.24,2.82,4.54,4.11.54,9.01.25,13.2.36,2.41.06,7.48,1.63,8.87-1.07,1.05-2.03.32-7.67.47-10.3s1.54-11.72.44-13.56c-1.01-1.69-7.38-1.21-9.39-1.38-3.47-.28-9.92-1.41-13.08-.71ZM106.98,135.69c-1.69-1.57-9.74-.85-12.45-.91-3.26-.07-11.9-2.38-11.75,2.56.12,3.87,2.66,13.28,4.08,17.08.65,1.75,1.15,3.23,3.29,3.5,3.14.38,7.47-.1,10.8-.03,2.4.05,10.75,1.81,11.35-1.39.34-1.8-1.09-4.53-1.56-6.4-1.02-4.02-1.69-8.9-2.87-12.69-.17-.55-.46-1.32-.88-1.71ZM127.44,190.98c-.01-.48.38-.96.36-1.4-.05-.96-5.43-9.4-6.41-11.09-1.56-2.7-1.55-5.52-5.3-5.87-4.95-.46-14.59-.42-19.58,0-2.11.18-2.11.69-1.46,2.7.78,2.46,4.12,7.55,5.66,9.89.69,1.05,3.61,5.77,4.59,5.77h22.13ZM115.74,202.61c-1.46.47-.18,2.07.33,2.74,1.31,1.72,9.99,9.16,11.84,9.69,2.06.6,15.61.62,18.09.29,1.32-.18,2.33-.94,1.4-2.23l-10.77-10.37-20.89-.12ZM138.61,222.48c-.13.64.19.82.6,1.2.74.69,10.08,5.18,10.77,5.18h16.75c.18,0,.89-.7.19-.99-1.49-.28-8.44-5.39-8.96-5.39h-19.34Z"/><path class="cls-7" d="M220.24,79.04c1.6-.27,3.41-.23,4.85.54,14.67,10.51,32.31,19.16,46.58,29.97,4.71,3.56,5.36,8.66,1.28,13.03l-46.9,30.05c-5.09,3.31-11.13-.25-11.3-6.09v-61.02c.34-2.92,2.52-5.97,5.49-6.48Z"/><path class="cls-9" d="M141,295.05h-44.46c-1.45,0,.41,5.4.91,6.26.9,1.53,3.12,3.36,4.75,4.02,7.34,2.97,15.57.17,21.38-4.64l9.82,8.16c-11.35,14.61-42.07,17.75-52.28.42-5.5-9.33-3.1-21.48,1.99-30.44,17.97-31.64,72.77-28.05,57.88,16.22ZM126.64,283.09c.61-16.97-23.01-11.81-27.11,0h27.11Z"/><path class="cls-8" d="M416.92,295.05h-45.06c-.36,12.51,13.66,13.5,22.48,9.12,1.11-.55,4.97-3.6,5.57-3.48l9.38,8.19c.25.97-3.23,3.8-4.15,4.5-22.01,16.63-58.88,6.28-49.52-26.4,5.24-18.31,25.25-31.6,44.24-28.52,18.87,3.06,22.68,20.51,17.05,36.58ZM402.96,283.09c-.08-17.24-23.29-11.7-27.91,0h27.91Z"/><path class="cls-4" d="M341.56,319.37h-17.94c2.34-10.87,6.43-21.89,8.5-32.77,1.49-7.83-.08-12.86-9.12-12.3-8.63.53-12.87,6.28-15.22,13.89-3.16,10.22-5.3,20.86-8.09,31.19h-17.94l15.55-59.41h17.15l-1.59,7.18c7.76-7.78,20.39-11.85,30.84-7.12,12.7,5.74,7.93,20.47,5.41,30.81-2.33,9.55-5.33,18.96-7.54,28.54Z"/><path class="cls-9" d="M184.86,245.21l-3.59,14.35h17.15l-4.04,15.5-17.44.1-6.33,23.77c-1.2,9.9,11.89,5.57,17.44,4.89-.93,1.89-2.38,13.77-3.48,14.36-12.89,4.1-36.74,6.17-33.96-14.12l7.53-28.95h-9.17l4.04-15.5,9.48-.09,3.63-14.31h18.74Z"/><path class="cls-2" d="M260.97,272.68l-14.58,7.96c-.92.08-2.2-2.69-3.12-3.52-9.12-8.27-25,.67-28.13,11.34-5.5,18.8,15.2,22.11,25.73,11.05l10.96,9.3c-6.87,6.47-15.71,11.44-25.32,12.16-35.05,2.62-39.1-33.89-16.55-53.23,8.64-7.41,21.1-11.03,32.39-9.26,7.77,1.22,17.12,5.85,18.6,14.2Z"/><polygon class="cls-5" points="287.73 259.96 271.98 319.37 254.63 319.37 269.79 259.96 287.73 259.96"/><path class="cls-6" d="M281.25,237.34c14.48-2.11,14.33,14.3,3.21,17.57-15.19,4.46-16.49-15.63-3.21-17.57Z"/><path class="cls-9" d="M81.79,259.57c.34.08.44.46.44.82,0,1.08-.84,3.62-1.15,4.85-4.16,16.3-8.78,35.51-14.13,51.26-7.96,23.47-30.94,31.11-54.01,26.67-2.31-.44-11.95-3.2-12.92-5.05-.42-.81,7.07-11.2,7.99-12.79.96-.65,2.54.92,3.81,1.42,15.46,6.06,34.53,3.86,38.27-14.94-4.4,3.77-10.01,6.37-15.79,7.13-33.62,4.41-34.96-33.6-13.71-51.59,11.21-9.49,33.07-15.16,42.47-.59.42-.02,1.39-7.18,2.39-7.18h16.35ZM39.12,304.62c18.73-1.86,25.32-32.01,4.11-30.18-19.64,1.7-25.97,32.36-4.11,30.18Z"/></svg>
